<?xml version="1.0" encoding="UTF-8"?>
<svg xmlns="http://www.w3.org/2000/svg" id="Layer_2" viewBox="0 0 620.06 86.62">
  <defs>
    <style>.cls-1{fill:#f8ce00;}.cls-2{fill:#fff;}</style>
  </defs>
  <g id="Layer_1-2">
    <g>
      <path class="cls-2" d="m119.76,83.1V29.56h11.35v53.54h-11.35Z"></path>
      <path class="cls-2" d="m180,83.1h-11.17v-23.91c0-2.95-.53-5.17-1.58-6.65-1.05-1.48-2.72-2.22-5.02-2.22-3.13,0-5.38,1.04-6.78,3.13-1.39,2.09-2.09,5.55-2.09,10.38v19.26h-11.17v-40.94h8.53l1.5,5.24h.62c1.25-1.98,2.96-3.47,5.14-4.49,2.19-1.01,4.67-1.52,7.45-1.52,4.76,0,8.37,1.29,10.84,3.86,2.47,2.58,3.7,6.29,3.7,11.15v26.7Z"></path>
      <path class="cls-2" d="m202.97,83.83c-4.81,0-8.59-1.87-11.33-5.6-2.75-3.74-4.12-8.91-4.12-15.53s1.4-11.94,4.19-15.69c2.79-3.75,6.65-5.62,11.55-5.62,5.15,0,9.08,2,11.79,6.01h.37c-.56-3.05-.84-5.77-.84-8.17v-13.11h11.21v56.98h-8.57l-2.16-5.31h-.48c-2.54,4.03-6.41,6.04-11.61,6.04Zm3.92-8.9c2.86,0,4.95-.83,6.28-2.49,1.33-1.66,2.06-4.48,2.18-8.46v-1.21c0-4.39-.68-7.54-2.03-9.45-1.35-1.9-3.56-2.86-6.61-2.86-2.49,0-4.42,1.06-5.8,3.17-1.38,2.11-2.07,5.18-2.07,9.21s.7,7.05,2.09,9.06c1.39,2.01,3.38,3.02,5.97,3.02Z"></path>
      <path class="cls-2" d="m264.97,83.1l-1.5-5.24h-.59c-1.2,1.9-2.89,3.38-5.09,4.41-2.2,1.04-4.7,1.56-7.51,1.56-4.81,0-8.44-1.29-10.88-3.86s-3.66-6.28-3.66-11.11v-26.7h11.17v23.91c0,2.95.52,5.17,1.57,6.65s2.72,2.22,5.02,2.22c3.12,0,5.38-1.04,6.77-3.13,1.39-2.09,2.09-5.55,2.09-10.38v-19.26h11.17v40.94h-8.57Z"></path>
      <path class="cls-2" d="m300.38,83.83c-12.74,0-19.12-6.99-19.12-20.98,0-6.96,1.73-12.27,5.2-15.95,3.47-3.67,8.43-5.51,14.91-5.51,4.74,0,8.98.93,12.74,2.78l-3.3,8.64c-1.76-.71-3.39-1.29-4.91-1.74-1.51-.45-3.03-.68-4.54-.68-5.81,0-8.72,4.13-8.72,12.38s2.9,12.01,8.72,12.01c2.15,0,4.14-.29,5.97-.86,1.83-.57,3.66-1.47,5.49-2.69v9.56c-1.81,1.15-3.63,1.94-5.47,2.38-1.84.44-4.17.66-6.98.66Z"></path>
      <path class="cls-2" d="m338.07,74.93c1.95,0,4.3-.43,7.03-1.28v8.31c-2.78,1.25-6.2,1.87-10.25,1.87-4.47,0-7.72-1.13-9.76-3.39-2.04-2.26-3.06-5.65-3.06-10.16v-19.74h-5.35v-4.72l6.15-3.74,3.22-8.64h7.14v8.72h11.46v8.39h-11.46v19.74c0,1.59.45,2.76,1.34,3.52.89.76,2.07,1.14,3.53,1.14Z"></path>
      <path class="cls-2" d="m420.25,83.1h-13.81l-4.21-4.14c-4.66,3.25-9.94,4.87-15.82,4.87s-10.68-1.37-14.17-4.1c-3.49-2.73-5.24-6.43-5.24-11.1,0-3.34.74-6.19,2.22-8.55,1.48-2.36,4.01-4.56,7.6-6.61-1.83-2.1-3.16-4.11-3.99-6.02-.83-1.92-1.25-4.01-1.25-6.28,0-3.71,1.42-6.7,4.27-8.97,2.84-2.27,6.65-3.41,11.41-3.41s8.17,1.06,10.89,3.17c2.72,2.11,4.08,4.94,4.08,8.48,0,2.91-.84,5.56-2.53,7.97s-4.41,4.69-8.17,6.87l10.4,10.14c1.73-2.86,3.24-6.53,4.5-11.02h11.65c-.88,3.3-2.09,6.51-3.62,9.65-1.54,3.14-3.28,5.91-5.24,8.33l11.02,10.73Zm-41.49-15.53c0,2.1.79,3.77,2.36,5.02,1.58,1.25,3.59,1.87,6.06,1.87,3.08,0,5.85-.74,8.31-2.23l-12.16-12.08c-1.42,1.07-2.53,2.2-3.35,3.37-.82,1.17-1.23,2.53-1.23,4.06Zm13.15-25.96c0-1.29-.44-2.31-1.32-3.06-.88-.74-2.01-1.12-3.41-1.12-1.64,0-2.92.39-3.86,1.17-.94.78-1.41,1.89-1.41,3.33,0,2.15,1.16,4.52,3.48,7.1,2.1-1.17,3.71-2.33,4.83-3.46,1.12-1.13,1.68-2.46,1.68-3.97Z"></path>
      <path class="cls-2" d="m464.12,83.1h-11.35v-44.09h-14.54v-9.45h40.43v9.45h-14.54v44.09Z"></path>
      <path class="cls-2" d="m507.37,41.39c1.51,0,2.77.11,3.77.33l-.84,10.47c-.9-.24-2-.37-3.3-.37-3.56,0-6.34.92-8.33,2.75-1.99,1.83-2.98,4.39-2.98,7.69v20.84h-11.17v-40.94h8.46l1.65,6.88h.55c1.27-2.29,2.98-4.14,5.14-5.55,2.16-1.4,4.51-2.11,7.05-2.11Z"></path>
      <path class="cls-2" d="m543.08,83.1l-2.16-5.57h-.29c-1.88,2.37-3.82,4.01-5.8,4.93-1.99.92-4.58,1.37-7.78,1.37-3.93,0-7.03-1.12-9.28-3.37-2.26-2.25-3.39-5.44-3.39-9.59s1.52-7.55,4.56-9.61c3.04-2.06,7.62-3.2,13.75-3.42l7.1-.22v-1.79c0-4.15-2.12-6.23-6.37-6.23-3.27,0-7.12.99-11.54,2.97l-3.7-7.54c4.71-2.47,9.94-3.7,15.67-3.7s9.71,1.2,12.63,3.59c2.93,2.39,4.39,6.03,4.39,10.91v27.28h-7.8Zm-3.3-18.97l-4.32.15c-3.25.1-5.66.68-7.25,1.76-1.59,1.07-2.38,2.71-2.38,4.91,0,3.15,1.81,4.72,5.42,4.72,2.59,0,4.66-.74,6.21-2.23,1.55-1.49,2.33-3.47,2.33-5.93v-3.37Z"></path>
      <path class="cls-2" d="m560.41,31.57c0-3.64,2.03-5.46,6.08-5.46s6.08,1.82,6.08,5.46c0,1.73-.51,3.08-1.52,4.05-1.01.96-2.53,1.45-4.56,1.45-4.05,0-6.08-1.83-6.08-5.49Zm11.65,51.53h-11.17v-40.94h11.17v40.94Z"></path>
      <path class="cls-2" d="m620.06,83.1h-11.17v-23.91c0-2.95-.53-5.17-1.58-6.65-1.05-1.48-2.72-2.22-5.02-2.22-3.13,0-5.38,1.04-6.78,3.13-1.39,2.09-2.09,5.55-2.09,10.38v19.26h-11.17v-40.94h8.53l1.5,5.24h.62c1.25-1.98,2.96-3.47,5.14-4.49,2.19-1.01,4.67-1.52,7.45-1.52,4.76,0,8.37,1.29,10.84,3.86,2.47,2.58,3.7,6.29,3.7,11.15v26.7Z"></path>
    </g>
    <g>
      <rect class="cls-2" x="16.46" y="60.09" width="3.25" height="25.88"></rect>
      <g>
        <path class="cls-2" d="m33.49,25.45c-3.1-1.4-8.2-3.06-14.94-3.06s-11.93,1.67-15.08,3.07c-2.11.93-3.47,3.03-3.47,5.35v24.75c0,3.63,2.46,6.8,5.97,7.71l.33.09v23.27h3.32v-24.76c0-.91-.74-1.66-1.66-1.66-2.56,0-4.64-2.08-4.64-4.64v-24.75c0-1.01.59-1.92,1.49-2.32,2.86-1.27,7.57-2.78,13.74-2.78s10.78,1.5,13.58,2.77c.9.4,1.47,1.31,1.47,2.31v24.77c0,2.56-2.08,4.64-4.64,4.64-.91,0-1.66.74-1.66,1.66v24.76h3.32v-23.27l.33-.09c3.51-.91,5.97-4.08,5.97-7.71v-24.77c0-2.3-1.35-4.4-3.43-5.33Z"></path>
        <path class="cls-2" d="m18.46,22.22c5.74,0,10.06-5.23,10.06-12.16,0-5.55-4.51-10.06-10.06-10.06s-10.06,4.51-10.06,10.06c0,6.93,4.33,12.16,10.06,12.16Zm0-18.9c3.72,0,6.74,3.02,6.74,6.74,0,5.12-2.84,8.84-6.74,8.84s-6.74-3.72-6.74-8.84c0-3.72,3.03-6.74,6.74-6.74Z"></path>
      </g>
      <path class="cls-2" d="m50.42,23.98c-2.74,0-4.98-2.23-4.98-4.98V5.18c0-2.74,2.23-4.98,4.98-4.98h13.82c.24,0,.48.02.74.06l-2.98,2.98h-11.59c-1.07,0-1.94.87-1.94,1.94v13.82c0,1.07.87,1.94,1.94,1.94h13.82c1.07,0,1.94-.87,1.94-1.94v-4.68l3.04-3.04v7.72c0,2.74-2.23,4.98-4.98,4.98h-13.82Z"></path>
      <path class="cls-1" d="m56.83,9.15c-.67-.67-1.77-.67-2.44,0-.67.67-.67,1.77,0,2.44l3.46,3.46c.34.34.78.51,1.22.51s.88-.17,1.22-.51l12.1-12.1c.67-.67.67-1.77,0-2.44s-1.77-.67-2.44,0l-10.87,10.87-2.23-2.23Z"></path>
      <path class="cls-2" d="m50.42,55.09c-2.74,0-4.98-2.23-4.98-4.98v-13.82c0-2.74,2.23-4.98,4.98-4.98h13.82c.24,0,.48.02.74.06l-2.98,2.98h-11.59c-1.07,0-1.94.87-1.94,1.94v13.82c0,1.07.87,1.94,1.94,1.94h13.82c1.07,0,1.94-.87,1.94-1.94v-4.68l3.04-3.04v7.72c0,2.74-2.23,4.98-4.98,4.98h-13.82Z"></path>
      <path class="cls-1" d="m69.93,31.61l-10.87,10.87-2.23-2.23c-.67-.67-1.77-.67-2.44,0-.67.67-.67,1.77,0,2.44l3.46,3.46c.34.34.78.51,1.22.51s.88-.17,1.22-.51l12.1-12.1c.67-.67.67-1.77,0-2.44s-1.77-.67-2.44,0Z"></path>
      <path class="cls-2" d="m50.42,86.19c-2.74,0-4.98-2.23-4.98-4.98v-13.82c0-2.74,2.23-4.98,4.98-4.98h13.82c.24,0,.48.02.74.06l-2.98,2.98h-11.59c-1.07,0-1.94.87-1.94,1.94v13.82c0,1.07.87,1.94,1.94,1.94h13.82c1.07,0,1.94-.87,1.94-1.94v-4.68l3.04-3.04v7.72c0,2.74-2.23,4.98-4.98,4.98h-13.82Z"></path>
      <path class="cls-1" d="m69.93,62.71l-10.87,10.87-2.23-2.23c-.67-.67-1.77-.67-2.44,0-.67.67-.67,1.77,0,2.44l3.46,3.46c.34.34.78.51,1.22.51s.88-.17,1.22-.51l12.1-12.1c.67-.67.67-1.77,0-2.44-.67-.67-1.77-.67-2.44,0Z"></path>
    </g>
  </g>
</svg>
