<?xml version="1.0" encoding="UTF-8"?>
<svg xmlns="http://www.w3.org/2000/svg" id="Layer_2" viewBox="0 0 537.91 116.39">
  <defs>
    <style>.cls-1{fill:#fff;}.cls-2{fill:#96bb00;}</style>
  </defs>
  <g id="Layer_1-2">
    <g>
      <path class="cls-1" d="m138.98,77.82v20.54h-11.35v-53.54h15.6c7.28,0,12.66,1.32,16.15,3.97,3.49,2.65,5.24,6.67,5.24,12.07,0,3.15-.87,5.95-2.6,8.4-1.73,2.45-4.19,4.38-7.36,5.77,8.06,12.04,13.31,19.81,15.75,23.33h-12.6l-12.78-20.54h-6.04Zm0-9.23h3.66c3.59,0,6.24-.6,7.95-1.79,1.71-1.2,2.56-3.08,2.56-5.64s-.87-4.35-2.62-5.42c-1.75-1.07-4.45-1.61-8.11-1.61h-3.44v14.47Z"></path>
      <path class="cls-1" d="m193.29,99.1c-6.59,0-11.74-1.82-15.45-5.46-3.71-3.64-5.57-8.79-5.57-15.45s1.71-12.16,5.15-15.91c3.43-3.75,8.17-5.62,14.23-5.62s10.29,1.65,13.51,4.94,4.83,7.85,4.83,13.66v5.42h-26.4c.12,3.17,1.06,5.65,2.82,7.43,1.76,1.78,4.22,2.67,7.4,2.67,2.47,0,4.8-.26,7-.77s4.49-1.33,6.88-2.45v8.64c-1.95.98-4.04,1.7-6.26,2.18-2.22.48-4.93.71-8.13.71Zm-1.57-34.5c-2.37,0-4.22.75-5.57,2.25-1.34,1.5-2.11,3.63-2.31,6.39h15.67c-.05-2.76-.77-4.89-2.16-6.39-1.39-1.5-3.27-2.25-5.64-2.25Z"></path>
      <path class="cls-1" d="m243.57,98.37l-2.16-5.57h-.29c-1.88,2.37-3.82,4.01-5.8,4.93-1.99.92-4.58,1.37-7.78,1.37-3.93,0-7.03-1.12-9.28-3.37-2.26-2.25-3.39-5.44-3.39-9.59s1.52-7.55,4.56-9.61c3.04-2.06,7.62-3.2,13.75-3.42l7.1-.22v-1.79c0-4.15-2.12-6.23-6.37-6.23-3.27,0-7.12.99-11.54,2.97l-3.7-7.54c4.71-2.47,9.94-3.7,15.67-3.7s9.71,1.2,12.63,3.59c2.93,2.39,4.39,6.03,4.39,10.91v27.28h-7.8Zm-3.3-18.97l-4.32.15c-3.25.1-5.66.68-7.25,1.76-1.59,1.07-2.38,2.71-2.38,4.91,0,3.15,1.81,4.72,5.42,4.72,2.59,0,4.66-.74,6.21-2.23,1.55-1.49,2.33-3.47,2.33-5.93v-3.37Z"></path>
      <path class="cls-1" d="m274.34,99.1c-4.81,0-8.59-1.87-11.33-5.6-2.75-3.74-4.12-8.91-4.12-15.53s1.4-11.94,4.19-15.69c2.79-3.75,6.65-5.62,11.55-5.62,5.15,0,9.08,2,11.79,6.01h.37c-.56-3.05-.84-5.77-.84-8.17v-13.11h11.21v56.98h-8.57l-2.16-5.31h-.48c-2.54,4.03-6.41,6.04-11.61,6.04Zm3.92-8.9c2.86,0,4.95-.83,6.28-2.49,1.33-1.66,2.06-4.48,2.18-8.46v-1.21c0-4.39-.68-7.54-2.03-9.45-1.35-1.9-3.56-2.86-6.61-2.86-2.49,0-4.42,1.06-5.8,3.17-1.38,2.11-2.07,5.18-2.07,9.21s.7,7.05,2.09,9.06c1.39,2.01,3.38,3.02,5.97,3.02Z"></path>
      <path class="cls-1" d="m375.71,98.37h-13.81l-4.21-4.14c-4.66,3.25-9.94,4.87-15.82,4.87s-10.68-1.37-14.17-4.1c-3.49-2.73-5.24-6.43-5.24-11.1,0-3.34.74-6.19,2.22-8.55,1.48-2.36,4.01-4.56,7.6-6.61-1.83-2.1-3.16-4.11-3.99-6.02-.83-1.92-1.25-4.01-1.25-6.28,0-3.71,1.42-6.7,4.27-8.97,2.84-2.27,6.65-3.41,11.41-3.41s8.17,1.06,10.89,3.17c2.72,2.11,4.08,4.94,4.08,8.48,0,2.91-.84,5.56-2.53,7.97s-4.41,4.69-8.17,6.87l10.4,10.14c1.73-2.86,3.24-6.53,4.5-11.02h11.65c-.88,3.3-2.09,6.51-3.62,9.65-1.54,3.14-3.28,5.91-5.24,8.33l11.02,10.73Zm-41.49-15.53c0,2.1.79,3.77,2.36,5.02,1.58,1.25,3.59,1.87,6.06,1.87,3.08,0,5.85-.74,8.31-2.23l-12.16-12.08c-1.42,1.07-2.53,2.2-3.35,3.37-.82,1.17-1.23,2.53-1.23,4.06Zm13.15-25.96c0-1.29-.44-2.31-1.32-3.06-.88-.74-2.01-1.12-3.41-1.12-1.64,0-2.92.39-3.86,1.17-.94.78-1.41,1.89-1.41,3.33,0,2.15,1.16,4.52,3.48,7.1,2.1-1.17,3.71-2.33,4.83-3.46,1.12-1.13,1.68-2.46,1.68-3.97Z"></path>
      <path class="cls-1" d="m430.53,83.5c0,4.83-1.74,8.64-5.22,11.43-3.48,2.78-8.32,4.17-14.52,4.17-5.71,0-10.77-1.07-15.16-3.22v-10.55c3.61,1.61,6.67,2.75,9.17,3.41,2.5.66,4.79.99,6.87.99,2.49,0,4.4-.48,5.73-1.43,1.33-.95,2-2.37,2-4.25,0-1.05-.29-1.98-.88-2.8s-1.45-1.61-2.58-2.36c-1.14-.76-3.45-1.96-6.94-3.63-3.27-1.54-5.73-3.02-7.36-4.43-1.64-1.42-2.94-3.06-3.92-4.94-.98-1.88-1.46-4.08-1.46-6.59,0-4.74,1.6-8.46,4.82-11.17,3.21-2.71,7.65-4.06,13.31-4.06,2.78,0,5.44.33,7.97.99,2.53.66,5.17,1.59,7.93,2.78l-3.66,8.83c-2.86-1.17-5.22-1.99-7.09-2.45-1.87-.46-3.71-.7-5.51-.7-2.15,0-3.8.5-4.94,1.5-1.15,1-1.72,2.31-1.72,3.92,0,1,.23,1.87.7,2.62.46.74,1.2,1.46,2.21,2.16,1.01.7,3.41,1.95,7.2,3.75,5,2.39,8.44,4.79,10.29,7.2,1.85,2.4,2.78,5.35,2.78,8.84Z"></path>
      <path class="cls-1" d="m437.38,46.84c0-3.64,2.03-5.46,6.08-5.46s6.08,1.82,6.08,5.46c0,1.73-.51,3.08-1.52,4.05-1.01.96-2.53,1.45-4.56,1.45-4.05,0-6.08-1.83-6.08-5.49Zm11.65,51.53h-11.17v-40.94h11.17v40.94Z"></path>
      <path class="cls-1" d="m494.88,57.43v5.68l-6.41,1.65c1.17,1.83,1.76,3.88,1.76,6.15,0,4.39-1.53,7.82-4.6,10.27-3.06,2.45-7.32,3.68-12.76,3.68l-2.01-.11-1.65-.18c-1.15.88-1.72,1.86-1.72,2.93,0,1.61,2.05,2.42,6.15,2.42h6.96c4.49,0,7.92.96,10.27,2.89,2.36,1.93,3.53,4.76,3.53,8.5,0,4.78-2,8.5-5.99,11.13-3.99,2.64-9.72,3.96-17.19,3.96-5.71,0-10.08-1-13.09-2.98-3.02-1.99-4.52-4.78-4.52-8.37,0-2.47.77-4.53,2.31-6.19s3.8-2.84,6.77-3.55c-1.15-.49-2.15-1.29-3-2.4s-1.28-2.29-1.28-3.53c0-1.56.45-2.86,1.35-3.9.9-1.04,2.21-2.06,3.92-3.06-2.15-.93-3.85-2.42-5.11-4.47s-1.89-4.47-1.89-7.25c0-4.47,1.45-7.92,4.36-10.36,2.9-2.44,7.05-3.66,12.45-3.66,1.15,0,2.51.1,4.08.31,1.58.21,2.58.36,3.02.46h14.28Zm-31.6,46.73c0,1.54.74,2.75,2.22,3.63,1.48.88,3.55,1.32,6.21,1.32,4,0,7.14-.55,9.41-1.65s3.41-2.6,3.41-4.5c0-1.54-.67-2.6-2.01-3.19-1.34-.59-3.42-.88-6.23-.88h-5.79c-2.05,0-3.77.48-5.15,1.45-1.38.96-2.07,2.24-2.07,3.83Zm4.07-33.33c0,2.22.51,3.98,1.52,5.27,1.01,1.29,2.56,1.94,4.63,1.94s3.64-.65,4.61-1.94c.98-1.29,1.46-3.05,1.46-5.27,0-4.93-2.03-7.4-6.08-7.4s-6.15,2.47-6.15,7.4Z"></path>
      <path class="cls-1" d="m537.91,98.37h-11.17v-23.91c0-2.95-.53-5.17-1.58-6.65-1.05-1.48-2.72-2.22-5.02-2.22-3.13,0-5.38,1.04-6.78,3.13-1.39,2.09-2.09,5.55-2.09,10.38v19.26h-11.17v-40.94h8.53l1.5,5.24h.62c1.25-1.98,2.96-3.47,5.14-4.49,2.19-1.01,4.67-1.52,7.45-1.52,4.76,0,8.37,1.29,10.84,3.86,2.47,2.58,3.7,6.29,3.7,11.15v26.7Z"></path>
    </g>
    <g>
      <path class="cls-1" d="m33.22,47.35c.49.33,1.13.3,1.59-.07.03-.02,2.94-2.37,7.16-2.37.74,0,1.33-.6,1.33-1.33s-.6-1.33-1.33-1.33c-2.26,0-4.21.55-5.7,1.17l1.47-4.6c.19-.61-.07-1.27-.63-1.57-.56-.31-1.26-.18-1.67.31-3.9,4.65-8.02,7.75-8.95,7.32-.11-.05-.38-.43-.56-1.23,2.04-1.66,3.35-4.27,2.99-6.04-.2-.97-.85-1.66-1.79-1.91-.55-.14-2.42-.38-3.44,2.47-.42,1.17-.64,2.72-.58,4.22-1.85,1.23-4.42,2.67-4.45,2.68-.64.36-.87,1.17-.52,1.81.24.44.7.68,1.17.68.22,0,.44-.05.65-.17.11-.06,1.95-1.09,3.69-2.18.36.94.92,1.69,1.71,2.06,2.17,1.02,5.35-1.16,8.05-3.67l-.71,2.23c-.18.56.03,1.18.52,1.51Z"></path>
      <path class="cls-1" d="m33.67,90.62c-2.95-1.33-7.7-2.89-13.95-3.05,5.2-.68,8.98-5.7,8.98-12.21,0-5.62-4.58-10.2-10.2-10.2s-10.2,4.58-10.2,10.2c0,6.53,3.8,11.56,9.02,12.22-6.1.2-10.82,1.74-13.77,3.05-2.16.96-3.55,3.11-3.55,5.48v1.64h3.61v-1.64c0-.95.55-1.8,1.4-2.18,2.85-1.26,7.53-2.77,13.66-2.77s10.72,1.5,13.51,2.75c.84.38,1.39,1.23,1.39,2.17v1.67h3.61v-1.67c0-2.36-1.38-4.5-3.51-5.46Zm-21.76-15.26c0-3.63,2.95-6.59,6.59-6.59s6.59,2.95,6.59,6.59c0,5.03-2.77,8.69-6.59,8.69s-6.59-3.65-6.59-8.69Z"></path>
      <path class="cls-1" d="m65.21,58.33c3.42,0,6.21-2.79,6.21-6.21v-23.54s-.05.07-.08.11c-1.09,1.46-2.13,2.83-3.15,4.14v19.29c0,1.64-1.34,2.98-2.98,2.98h-14.19c-.43,0-.84.17-1.14.47l-11.03,11.03v-9.89c0-.89-.72-1.62-1.62-1.62H14.66c-1.64,0-2.98-1.34-2.98-2.98V15.69c0-1.64,1.34-2.98,2.98-2.98h47.65c.89-1.13,1.76-2.21,2.6-3.23H14.66c-3.42,0-6.21,2.79-6.21,6.21v36.43c0,3.42,2.79,6.21,6.21,6.21h20.96v12.17c0,.66.39,1.24,1,1.49.2.08.4.12.62.12.43,0,.84-.17,1.14-.47l13.31-13.31h13.52Z"></path>
      <path class="cls-2" d="m81.92.39c-.24-.18-.64-.39-1.2-.39-.1,0-.21,0-.33.02-4.32.61-17.95,18.75-19.49,20.81-4.42,5.92-8.31,11.69-10.97,16.24-4.02,6.87-4.04,8.73-2.68,9.76.22.17.49.29.77.35.14.03.28.04.43.04.11,0,.22,0,.33-.02,4.32-.61,17.95-18.75,19.49-20.81,4.42-5.93,8.32-11.69,10.97-16.24,4.02-6.87,4.04-8.73,2.67-9.77Zm-16.12,24.16c-7,9.38-12.43,15.36-15.33,18.01,1.71-3.55,5.9-10.48,12.92-19.88,1.35-1.81,2.72-3.6,4.08-5.32l2.28,1.73c-1.27,1.8-2.59,3.63-3.95,5.45Zm5.71-8l-2.11-1.6c3.65-4.47,7.04-8.21,9.32-10.29-1.34,2.78-3.96,7.11-7.21,11.89Z"></path>
      <path class="cls-1" d="m75.01,90.62c-2.95-1.33-7.7-2.89-13.95-3.05,5.2-.68,8.98-5.7,8.98-12.21,0-5.62-4.58-10.2-10.2-10.2s-10.2,4.58-10.2,10.2c0,6.53,3.8,11.56,9.02,12.22-6.1.2-10.82,1.74-13.77,3.05-2.16.96-3.55,3.11-3.55,5.48v1.64h3.61v-1.64c0-.95.55-1.8,1.4-2.18,2.85-1.26,7.53-2.77,13.66-2.77s10.72,1.5,13.51,2.75c.84.38,1.39,1.23,1.39,2.17v1.67h3.61v-1.67c0-2.36-1.38-4.5-3.51-5.46Zm-21.76-15.26c0-3.63,2.95-6.59,6.59-6.59s6.59,2.95,6.59,6.59c0,5.03-2.77,8.69-6.59,8.69s-6.59-3.65-6.59-8.69Z"></path>
      <path class="cls-1" d="m56.45,20.42H17.97v3.2h36.18c.75-1.06,1.51-2.12,2.3-3.2Z"></path>
      <path class="cls-1" d="m50.91,28.34H17.97v3.2h30.85c.65-1.03,1.35-2.1,2.09-3.2Z"></path>
    </g>
  </g>
</svg>
